<mxfile host="app.diagrams.net" modified="2023-10-12T15:53:02.899Z" agent="Mozilla/5.0 (X11; Linux x86_64) AppleWebKit/537.36 (KHTML, like Gecko) Chrome/117.0.0.0 Safari/537.36" etag="gqG1g9jOCbp6klFjjRaC" version="22.0.4" type="device">
  <diagram name="Page-1" id="RZIPt8WIMP1STOJP-Mgb">
    <mxGraphModel dx="1104" dy="-436" grid="1" gridSize="10" guides="1" tooltips="1" connect="1" arrows="1" fold="1" page="1" pageScale="1" pageWidth="850" pageHeight="1100" math="0" shadow="0">
      <root>
        <mxCell id="0" />
        <mxCell id="1" parent="0" />
        <mxCell id="xHq9znNxkk9347Fw4H0c-1" value="1. Register" style="ellipse;whiteSpace=wrap;html=1;" vertex="1" parent="1">
          <mxGeometry x="340" y="1140" width="120" height="80" as="geometry" />
        </mxCell>
        <mxCell id="xHq9znNxkk9347Fw4H0c-2" value="2. Login" style="ellipse;whiteSpace=wrap;html=1;" vertex="1" parent="1">
          <mxGeometry x="400" y="1250" width="120" height="80" as="geometry" />
        </mxCell>
        <mxCell id="xHq9znNxkk9347Fw4H0c-3" value="3. Create Project" style="ellipse;whiteSpace=wrap;html=1;" vertex="1" parent="1">
          <mxGeometry x="256" y="1380" width="120" height="80" as="geometry" />
        </mxCell>
        <mxCell id="xHq9znNxkk9347Fw4H0c-5" value="5. Edit Project" style="ellipse;whiteSpace=wrap;html=1;" vertex="1" parent="1">
          <mxGeometry x="565.5" y="1470" width="120" height="80" as="geometry" />
        </mxCell>
        <mxCell id="xHq9znNxkk9347Fw4H0c-6" value="6. Edit Task" style="ellipse;whiteSpace=wrap;html=1;" vertex="1" parent="1">
          <mxGeometry x="415" y="1470" width="120" height="80" as="geometry" />
        </mxCell>
        <mxCell id="xHq9znNxkk9347Fw4H0c-16" style="edgeStyle=orthogonalEdgeStyle;rounded=0;orthogonalLoop=1;jettySize=auto;html=1;entryX=0.019;entryY=0.368;entryDx=0;entryDy=0;entryPerimeter=0;" edge="1" parent="1" target="xHq9znNxkk9347Fw4H0c-2">
          <mxGeometry relative="1" as="geometry">
            <mxPoint x="230.57" y="1280" as="sourcePoint" />
            <mxPoint x="400.0038664083524" y="1279" as="targetPoint" />
            <Array as="points">
              <mxPoint x="231" y="1270" />
              <mxPoint x="330" y="1270" />
              <mxPoint x="330" y="1279" />
            </Array>
          </mxGeometry>
        </mxCell>
        <mxCell id="xHq9znNxkk9347Fw4H0c-17" style="edgeStyle=orthogonalEdgeStyle;rounded=0;orthogonalLoop=1;jettySize=auto;html=1;entryX=0;entryY=0.5;entryDx=0;entryDy=0;startArrow=classic;startFill=1;endArrow=none;endFill=0;" edge="1" parent="1" source="xHq9znNxkk9347Fw4H0c-7" target="xHq9znNxkk9347Fw4H0c-2">
          <mxGeometry relative="1" as="geometry" />
        </mxCell>
        <mxCell id="xHq9znNxkk9347Fw4H0c-20" style="edgeStyle=orthogonalEdgeStyle;rounded=0;orthogonalLoop=1;jettySize=auto;html=1;entryX=0;entryY=0.5;entryDx=0;entryDy=0;exitX=0.578;exitY=1.014;exitDx=0;exitDy=0;exitPerimeter=0;" edge="1" parent="1" source="xHq9znNxkk9347Fw4H0c-7" target="xHq9znNxkk9347Fw4H0c-3">
          <mxGeometry relative="1" as="geometry" />
        </mxCell>
        <mxCell id="xHq9znNxkk9347Fw4H0c-7" value="User" style="rounded=0;whiteSpace=wrap;html=1;" vertex="1" parent="1">
          <mxGeometry x="120" y="1250" width="120" height="60" as="geometry" />
        </mxCell>
        <mxCell id="xHq9znNxkk9347Fw4H0c-32" style="edgeStyle=orthogonalEdgeStyle;rounded=0;orthogonalLoop=1;jettySize=auto;html=1;" edge="1" parent="1" source="xHq9znNxkk9347Fw4H0c-31" target="xHq9znNxkk9347Fw4H0c-6">
          <mxGeometry relative="1" as="geometry" />
        </mxCell>
        <mxCell id="xHq9znNxkk9347Fw4H0c-33" style="edgeStyle=orthogonalEdgeStyle;rounded=0;orthogonalLoop=1;jettySize=auto;html=1;startArrow=classic;startFill=1;endArrow=none;endFill=0;entryX=0.008;entryY=0.641;entryDx=0;entryDy=0;entryPerimeter=0;" edge="1" parent="1" target="xHq9znNxkk9347Fw4H0c-6">
          <mxGeometry relative="1" as="geometry">
            <mxPoint x="257" y="1520" as="sourcePoint" />
            <mxPoint x="361" y="1520" as="targetPoint" />
          </mxGeometry>
        </mxCell>
        <mxCell id="xHq9znNxkk9347Fw4H0c-31" value="Team member" style="rounded=0;whiteSpace=wrap;html=1;" vertex="1" parent="1">
          <mxGeometry x="136" y="1480" width="120" height="60" as="geometry" />
        </mxCell>
        <mxCell id="xHq9znNxkk9347Fw4H0c-25" value="Project Owner" style="rounded=0;whiteSpace=wrap;html=1;" vertex="1" parent="1">
          <mxGeometry x="558" y="1250" width="120" height="60" as="geometry" />
        </mxCell>
        <mxCell id="xHq9znNxkk9347Fw4H0c-8" value="&lt;span style=&quot;white-space: pre;&quot;&gt;&#x9;&lt;/span&gt;&amp;nbsp;Registered users" style="html=1;dashed=0;whiteSpace=wrap;shape=mxgraph.dfd.dataStoreID;align=left;spacingLeft=3;points=[[0,0],[0.5,0],[1,0],[0,0.5],[1,0.5],[0,1],[0.5,1],[1,1]];" vertex="1" parent="1">
          <mxGeometry x="520" y="1170" width="140" height="40" as="geometry" />
        </mxCell>
        <mxCell id="xHq9znNxkk9347Fw4H0c-9" value="" style="endArrow=classic;html=1;rounded=0;endFill=1;startArrow=none;startFill=0;" edge="1" parent="1">
          <mxGeometry width="50" height="50" relative="1" as="geometry">
            <mxPoint x="460" y="1180" as="sourcePoint" />
            <mxPoint x="520" y="1180" as="targetPoint" />
          </mxGeometry>
        </mxCell>
        <mxCell id="xHq9znNxkk9347Fw4H0c-10" value="" style="endArrow=none;html=1;rounded=0;exitX=0.979;exitY=0.398;exitDx=0;exitDy=0;exitPerimeter=0;startArrow=classic;startFill=1;" edge="1" parent="1">
          <mxGeometry width="50" height="50" relative="1" as="geometry">
            <mxPoint x="457.4799999999999" y="1189.71" as="sourcePoint" />
            <mxPoint x="520" y="1189.71" as="targetPoint" />
          </mxGeometry>
        </mxCell>
        <mxCell id="xHq9znNxkk9347Fw4H0c-12" style="edgeStyle=orthogonalEdgeStyle;rounded=0;orthogonalLoop=1;jettySize=auto;html=1;entryX=0.002;entryY=0.36;entryDx=0;entryDy=0;entryPerimeter=0;exitX=0.25;exitY=0;exitDx=0;exitDy=0;" edge="1" parent="1" source="xHq9znNxkk9347Fw4H0c-7" target="xHq9znNxkk9347Fw4H0c-1">
          <mxGeometry relative="1" as="geometry" />
        </mxCell>
        <mxCell id="xHq9znNxkk9347Fw4H0c-13" style="edgeStyle=orthogonalEdgeStyle;rounded=0;orthogonalLoop=1;jettySize=auto;html=1;entryX=0.015;entryY=0.63;entryDx=0;entryDy=0;entryPerimeter=0;exitX=0.5;exitY=0;exitDx=0;exitDy=0;startArrow=classic;startFill=1;endArrow=none;endFill=0;" edge="1" parent="1" source="xHq9znNxkk9347Fw4H0c-7" target="xHq9znNxkk9347Fw4H0c-1">
          <mxGeometry relative="1" as="geometry">
            <Array as="points">
              <mxPoint x="180" y="1190" />
            </Array>
          </mxGeometry>
        </mxCell>
        <mxCell id="xHq9znNxkk9347Fw4H0c-14" value="request" style="text;html=1;strokeColor=none;fillColor=none;align=center;verticalAlign=middle;whiteSpace=wrap;rounded=0;" vertex="1" parent="1">
          <mxGeometry x="210" y="1145" width="60" height="30" as="geometry" />
        </mxCell>
        <mxCell id="xHq9znNxkk9347Fw4H0c-18" value="login request" style="text;html=1;strokeColor=none;fillColor=none;align=center;verticalAlign=middle;whiteSpace=wrap;rounded=0;" vertex="1" parent="1">
          <mxGeometry x="256" y="1247" width="84" height="30" as="geometry" />
        </mxCell>
        <mxCell id="xHq9znNxkk9347Fw4H0c-19" value="login respond" style="text;html=1;strokeColor=none;fillColor=none;align=center;verticalAlign=middle;whiteSpace=wrap;rounded=0;" vertex="1" parent="1">
          <mxGeometry x="240" y="1270" width="84" height="30" as="geometry" />
        </mxCell>
        <mxCell id="xHq9znNxkk9347Fw4H0c-22" value="project information" style="text;html=1;strokeColor=none;fillColor=none;align=center;verticalAlign=middle;whiteSpace=wrap;rounded=0;rotation=90;" vertex="1" parent="1">
          <mxGeometry x="151" y="1350" width="105" height="30" as="geometry" />
        </mxCell>
        <mxCell id="xHq9znNxkk9347Fw4H0c-34" value="task information" style="text;html=1;strokeColor=none;fillColor=none;align=center;verticalAlign=middle;whiteSpace=wrap;rounded=0;rotation=0;" vertex="1" parent="1">
          <mxGeometry x="290" y="1488" width="105" height="30" as="geometry" />
        </mxCell>
        <mxCell id="xHq9znNxkk9347Fw4H0c-36" value="respond" style="text;html=1;strokeColor=none;fillColor=none;align=center;verticalAlign=middle;whiteSpace=wrap;rounded=0;rotation=0;" vertex="1" parent="1">
          <mxGeometry x="290" y="1514" width="105" height="30" as="geometry" />
        </mxCell>
        <mxCell id="xHq9znNxkk9347Fw4H0c-24" value="respond" style="text;html=1;strokeColor=none;fillColor=none;align=center;verticalAlign=middle;whiteSpace=wrap;rounded=0;rotation=-90;" vertex="1" parent="1">
          <mxGeometry x="111" y="1354" width="105" height="30" as="geometry" />
        </mxCell>
        <mxCell id="xHq9znNxkk9347Fw4H0c-15" value="respond" style="text;html=1;strokeColor=none;fillColor=none;align=center;verticalAlign=middle;whiteSpace=wrap;rounded=0;" vertex="1" parent="1">
          <mxGeometry x="212" y="1180" width="60" height="30" as="geometry" />
        </mxCell>
        <mxCell id="xHq9znNxkk9347Fw4H0c-21" style="edgeStyle=orthogonalEdgeStyle;rounded=0;orthogonalLoop=1;jettySize=auto;html=1;startArrow=classic;startFill=1;endArrow=none;endFill=0;" edge="1" parent="1" source="xHq9znNxkk9347Fw4H0c-7" target="xHq9znNxkk9347Fw4H0c-3">
          <mxGeometry relative="1" as="geometry">
            <Array as="points">
              <mxPoint x="170" y="1440" />
            </Array>
          </mxGeometry>
        </mxCell>
        <mxCell id="xHq9znNxkk9347Fw4H0c-27" value="" style="endArrow=none;html=1;rounded=0;entryX=0.5;entryY=1;entryDx=0;entryDy=0;exitX=0.441;exitY=0.01;exitDx=0;exitDy=0;exitPerimeter=0;startArrow=classic;startFill=1;" edge="1" parent="1" source="xHq9znNxkk9347Fw4H0c-5" target="xHq9znNxkk9347Fw4H0c-25">
          <mxGeometry width="50" height="50" relative="1" as="geometry">
            <mxPoint x="543" y="1360" as="sourcePoint" />
            <mxPoint x="593" y="1310" as="targetPoint" />
          </mxGeometry>
        </mxCell>
        <mxCell id="xHq9znNxkk9347Fw4H0c-28" value="" style="endArrow=classic;html=1;rounded=0;entryX=0.5;entryY=1;entryDx=0;entryDy=0;exitX=0.5;exitY=0;exitDx=0;exitDy=0;endFill=1;" edge="1" parent="1" source="xHq9znNxkk9347Fw4H0c-5">
          <mxGeometry width="50" height="50" relative="1" as="geometry">
            <mxPoint x="625.36" y="1391" as="sourcePoint" />
            <mxPoint x="625.36" y="1310" as="targetPoint" />
          </mxGeometry>
        </mxCell>
        <mxCell id="xHq9znNxkk9347Fw4H0c-29" value="project information" style="text;html=1;strokeColor=none;fillColor=none;align=center;verticalAlign=middle;whiteSpace=wrap;rounded=0;rotation=-90;" vertex="1" parent="1">
          <mxGeometry x="556" y="1370" width="110" height="30" as="geometry" />
        </mxCell>
        <mxCell id="xHq9znNxkk9347Fw4H0c-30" value="respond" style="text;html=1;strokeColor=none;fillColor=none;align=center;verticalAlign=middle;whiteSpace=wrap;rounded=0;rotation=90;" vertex="1" parent="1">
          <mxGeometry x="580" y="1377" width="110" height="30" as="geometry" />
        </mxCell>
      </root>
    </mxGraphModel>
  </diagram>
</mxfile>
